<svg width="41" height="25" viewBox="0 0 41 25" fill="none" xmlns="http://www.w3.org/2000/svg">
<path d="M18.8201 8.453C18.8201 6.28377 19.5621 4.2743 20.826 2.62342V1.16425H15.458L15.5858 16.1039H15.4899L6.30533 1.16425H0V24.0601H5.36805L5.24024 9.08495H5.33609L14.5527 24.0601H20.826V14.2826C19.5621 12.6281 18.8201 10.6222 18.8201 8.453Z" fill="black"/>
<path d="M40.8179 8.41395C40.8179 9.80212 40.5765 11.0625 40.0936 12.195C39.6108 13.3276 38.9824 14.4779 38.212 15.6459L32.5706 24.0637H25.8747L31.6901 16.008L31.7575 15.9086C31.5161 15.9974 31.2463 16.0613 30.9481 16.1074C30.6498 16.15 30.3729 16.1749 30.1067 16.1749C29.0735 16.1749 28.0972 15.9938 27.1741 15.6317C26.251 15.2696 25.438 14.7512 24.7351 14.0802C24.0321 13.4092 23.4711 12.6069 23.0558 11.6696C22.6368 10.7358 22.4309 9.69561 22.4309 8.54887C22.4309 7.22816 22.6723 6.03881 23.1552 4.98437C23.638 3.92638 24.2984 3.03526 25.1327 2.311C25.967 1.58319 26.9469 1.02934 28.0652 0.642358C29.1871 0.258926 30.3729 0.0636597 31.6262 0.0636597C32.8794 0.0636597 34.0972 0.255376 35.2191 0.642358C36.341 1.02934 37.3102 1.58319 38.1374 2.311C38.9611 3.03881 39.6143 3.91928 40.0972 4.95242C40.58 5.98555 40.8214 7.14295 40.8214 8.41751L40.8179 8.41395ZM35.3043 8.3465C35.3043 7.33466 34.9777 6.45774 34.3244 5.72283C33.6711 4.98437 32.7836 4.61514 31.6546 4.61514C30.5256 4.61514 29.6274 4.96307 28.9528 5.65538C28.2782 6.34768 27.941 7.25656 27.941 8.37845C27.941 9.43644 28.2711 10.3098 28.9351 11.0021C29.599 11.6944 30.483 12.0424 31.5871 12.0424C32.6913 12.0424 33.5859 11.7015 34.2747 11.0199C34.9599 10.3382 35.3043 9.44709 35.3043 8.3465Z" fill="#1BB7D0"/>
</svg>
